<svg version="1.2" xmlns="http://www.w3.org/2000/svg" viewBox="0 0 72 72" width="72" height="72">
	<title>New Project</title>
	<style>
		.s0 { fill: #18ffbb } 
		.s1 { fill: #ffffff } 
		.s2 { fill: #000000 } 
	</style>
	<g id="Layer 1">
		<path id="Shape 1" fill-rule="evenodd" class="s0" d="m46.9 41.1c-11.3 19.8-42.3-11.6 2.9-11.5"/>
		<path id="Naturally Nate" class="s1" aria-label="Naturally Nate"  d="m5 37.7v2.3q0 0.2-0.1 0.2-0.1 0-0.3-0.1-0.1-0.1-0.2-0.2-0.6-0.3-1.5-0.9-1.4-0.8-1.6-1v2q-0.1 0.2-0.2 0.2-0.2 0-0.2-0.2v-2.3q0.1-0.2 0.2-0.2 0.1 0 0.2 0.1 0.1 0.1 0.2 0.2 0.7 0.3 1.6 0.9 0.8 0.5 1.6 1v-2q0-0.2 0.2-0.2 0.1 0 0.1 0.2zm3.1 0.2q0 0 0 0 0.1 0 0.1 0 0 0.1 0.3 0.4 0.4 0.5 1.1 1.3 0 0 0 0.1-0.1 0.1-0.1 0.1-0.1 0-0.2-0.1-0.1-0.1-0.1-0.2h-2.1q-0.1 0.1-0.1 0.2-0.1 0.1-0.2 0.1-0.1 0-0.1-0.1 0 0 0-0.1 0 0 0.1-0.1 0-0.1 0.1-0.1 0.2-0.3 0.5-0.7 0.2-0.3 0.7-0.8zm-0.8 1.3h1.7l-0.9-1zm7.4-1h-1.2v1.5q-0.1 0.1-0.2 0.1-0.1 0-0.1-0.1v-1.5h-1.2q-0.1 0-0.1-0.1 0-0.1 0.1-0.2h2.7q0.1 0 0.1 0.2 0 0.1-0.1 0.1zm5.3-0.2v0.8q0 0-0.1 0.2 0 0.1 0 0.1-0.3 0.4-0.7 0.5-0.3 0.2-0.7 0.2-0.4 0-0.7-0.2-0.4-0.1-0.6-0.5-0.1-0.1-0.1-0.1 0-0.2 0-0.2v-0.8q0 0 0 0 0.1-0.1 0.1-0.1 0 0 0.1 0.1 0 0 0 0v0.8q0 0 0 0 0 0 0 0.1 0.1 0.1 0.2 0.2 0.1 0.2 0.2 0.2 0.4 0.2 0.8 0.2 0.4 0 0.7-0.1 0.3-0.2 0.4-0.4 0.1-0.2 0.1-0.2v-0.8q0 0 0.1 0 0-0.1 0-0.1 0.1 0 0.1 0.1 0.1 0 0.1 0zm5.1 0.4q0 0.3-0.1 0.4-0.1 0.2-0.4 0.2h-0.4q0.3 0.2 0.9 0.5 0 0.1 0 0.1 0 0.1 0 0.1-0.1 0.1-0.1 0.1 0 0-0.1 0-0.6-0.4-1.2-0.8h-1.2v0.7q-0.1 0.1-0.1 0.1-0.1 0-0.2-0.1v-1.6q0-0.1 0.1-0.1 0-0.1 0.1-0.1h2.2q0.3 0.1 0.4 0.2 0.1 0.2 0.1 0.3zm-0.5-0.2h-2.1v0.5h2.1q0.1 0 0.2-0.1 0.1 0 0.1-0.1 0-0.1-0.1-0.2-0.1-0.1-0.2-0.1zm32.2-0.5v2.3q-0.1 0.2-0.2 0.2-0.1 0-0.2-0.1-0.1-0.1-0.2-0.2-0.6-0.3-1.6-0.9-1.3-0.8-1.6-1v2q0 0.2-0.2 0.2-0.1 0-0.2-0.2v-2.3q0.1-0.2 0.2-0.2 0.1 0 0.3 0.1 0.1 0.1 0.2 0.2 0.6 0.3 1.5 0.9 0.8 0.5 1.6 1v-2q0-0.2 0.2-0.2 0.1 0 0.2 0.2zm3 0.2q0 0 0.1 0 0 0 0.1 0 0 0.1 0.2 0.4 0.5 0.5 1.1 1.3 0.1 0 0 0.1 0 0.1-0.1 0.1-0.1 0-0.1-0.1-0.1-0.1-0.2-0.2h-2.1q0 0.1-0.1 0.2-0.1 0.1-0.2 0.1 0 0-0.1-0.1 0 0 0 0 0-0.1 0.1-0.2 0.1-0.1 0.1-0.1 0.3-0.3 0.6-0.7 0.2-0.2 0.6-0.8zm-0.8 1.3h1.7l-0.8-0.9zm7.3-1.1h-1.2v1.5q0 0.1-0.1 0.1-0.1 0-0.2-0.1v-1.5h-1.2q-0.1 0-0.1-0.1 0-0.1 0.1-0.2h2.7q0.1 0.1 0.1 0.2 0 0.1-0.1 0.1zm5.2 1.6h-2.7q0 0-0.1-0.1 0 0 0 0v-1.6q0-0.1 0-0.1 0.1-0.1 0.1-0.1h2.7q0.1 0.1 0.1 0.2 0 0.1-0.1 0.1h-2.5v0.5h2.5q0.1 0.1 0.1 0.2 0 0-0.1 0.1h-2.5v0.5h2.5q0.1 0.1 0.1 0.2 0 0-0.1 0.1z"/>
		<path id="Naturally Nate" class="s2" aria-label="Naturally Nate"  d="m28.8 37.9q0 0 0 0 0.1 0 0.1 0 0 0.1 0.3 0.4 0.4 0.5 1.1 1.3 0 0 0 0.1-0.1 0.1-0.1 0.1-0.1 0-0.2-0.1-0.1-0.1-0.1-0.2h-2.1q-0.1 0.1-0.2 0.2 0 0.1-0.1 0.1-0.1 0-0.1-0.1 0 0 0-0.1 0 0 0-0.1 0.1-0.1 0.2-0.1 0.2-0.3 0.5-0.7 0.2-0.3 0.7-0.8zm-0.8 1.3h1.7l-0.9-1zm7.4 0.6h-2.7q0 0-0.1-0.1 0 0 0 0v-1.7q0-0.1 0.1-0.1 0.1 0 0.1 0.2v1.4h2.6q0.1 0.1 0.1 0.1 0 0.1-0.1 0.2zm5.1 0h-2.6q-0.1 0-0.1-0.1-0.1 0-0.1 0v-1.7q0.1-0.1 0.2-0.1 0.1 0 0.1 0.2v1.4h2.5q0.1 0.1 0.1 0.1 0 0.1-0.1 0.2zm5.2-1.9q0.1 0.1 0.1 0.1 0 0.1-0.1 0.2-0.1 0.1-1.2 0.7v0.8q0 0.1-0.1 0.1-0.1 0-0.2-0.1v-0.8q0 0-0.2-0.1-0.1-0.1-0.2-0.1 0-0.1-0.1-0.1 0 0-0.2-0.1l-0.4-0.2q0-0.1-0.1-0.1-0.1-0.1-0.1-0.1 0-0.1 0-0.1 0.1-0.1 0.1-0.1 0.1 0 0.1 0 0.1 0.1 1.3 0.8 0 0 0.2-0.1 0.4-0.3 1-0.7 0.1 0 0.1 0z"/>
	</g>
</svg>